PathFileType	4	(X/Y/Z)	Patient4_TMGait_0pt5_01_left_28.trc.trc
DataRate	CameraRate	NumFrames	NumMarkers	Units	OrigDataRate	OrigDataStartFrame	OrigNumFrames
76.086956521739	76.086956521739	4	33	mm	76.086956521739	53	       141
Frame#	Time	L.ASIS			Sacral			L.Shoulder			Chest			R.Shoulder			Neck			R.ASIS			R.Thigh.Superior			R.Thigh.Lateral			R.Thigh.Inferior			R.Patella			L.Thigh.Superior			L.Thigh.Lateral			L.Thigh.Inferior			L.Patella			L.Shank.Superior			L.Shank.Lateral			L.Shank.Inferior			R.Shank.Superior			R.Shank.Lateral			R.Shank.Inferior			R.Heel			R.Midfoot.Superior			R.Midfoot.Lateral			R.Toe			L.Heel			L.Midfoot.Lateral			L.Midfoot.Superior			L.Toe			L.Elbow			L.Wrist			R.Elbow			R.Wrist			
		X1	Y1	Z1	X2	Y2	Z2	X3	Y3	Z3	X4	Y4	Z4	X5	Y5	Z5	X6	Y6	Z6	X7	Y7	Z7	X8	Y8	Z8	X9	Y9	Z9	X10	Y10	Z10	X11	Y11	Z11	X12	Y12	Z12	X13	Y13	Z13	X14	Y14	Z14	X15	Y15	Z15	X16	Y16	Z16	X17	Y17	Z17	X18	Y18	Z18	X19	Y19	Z19	X20	Y20	Z20	X21	Y21	Z21	X22	Y22	Z22	X23	Y23	Z23	X24	Y24	Z24	X25	Y25	Z25	X26	Y26	Z26	X27	Y27	Z27	X28	Y28	Z28	X29	Y29	Z29	X30	Y30	Z30	X31	Y31	Z31	X32	Y32	Z32	X33	Y33	Z33	

53	38.083428571429	881.689033913410	964.175787041858	279.156035318564	680.853690626161	1005.932654564219	455.560734276151	841.895651728513	1440.259353713979	273.890523826474	958.747019615821	1364.629905591176	423.104563602769	887.269031680511	1433.582161333893	606.301076973122	858.015769314436	1495.897223459043	424.011294635385	916.129578481063	937.534793514634	550.257208935760	990.493895210180	761.783901500770	517.216077027949	949.673483703821	644.301399397213	593.325834496968	1033.333376094665	601.323668157038	508.751133169780	1048.198926930065	486.169590780538	528.606628711144	931.245654303336	749.908949574155	308.869488622776	836.686842425959	635.464961327092	257.794904839586	918.315859999918	555.655563613434	320.917849440721	916.415087417181	484.870755434534	334.693458848014	886.676257852354	413.232633750198	327.520845234227	793.792576658595	303.128019220417	275.526535191251	833.047854927014	191.343820693861	351.398625268271	965.038537189283	417.245074845700	540.159524561786	843.538773242319	389.863542179160	606.504466163782	815.368936551430	283.130491484332	559.621709606119	612.499693328484	259.631938225751	541.281819255132	763.327288027863	158.734335737463	574.352553295916	656.505368835766	183.462642063599	610.490309711657	797.615171354785	31.589433756496	594.589465674959	694.816059264064	38.588673355156	388.376879634294	771.491325720961	35.313036068685	310.067910001648	854.492998196048	95.878129403583	339.518474666566	983.524824461012	40.911289979205	315.213238181598	755.467207883076	1107.544476693191	133.408564644590	900.123508005404	889.314357232805	106.701348692085	829.896953096947	1093.720779704947	726.712463126587	892.505576410268	841.546228301035	753.409753527434	
54	38.096571428571	881.416386206317	964.311968972899	279.022328744646	679.486340384104	1006.229053181577	453.883087016403	843.435249449368	1440.550092986809	273.316915290751	958.548682223957	1364.559529215246	423.667480474415	885.395265288161	1433.750215028606	606.069656604986	858.287368257626	1496.081479456923	423.556978941740	914.002567388080	938.135322814957	550.381396175141	991.954959521201	766.299366849322	516.718501266163	954.168435600572	647.975074455168	592.956544845050	1039.178814699673	607.212745881432	508.462805754580	1056.922708083020	492.108598306044	528.248268332136	928.962357481894	749.013598950411	308.639638966523	833.238534274399	635.491067010984	257.338726362030	913.717544242233	554.956439565467	320.825803799178	910.953881378926	484.309633634739	334.735944032636	881.205822553006	412.961861307643	327.387992772738	788.105365519081	303.094903657770	275.263074356321	826.775364460006	191.240090307932	351.314435562607	974.895799600063	421.555697349351	539.482152276050	853.291482928096	392.043108340013	604.671568708311	827.728984596415	284.629672061278	557.884416534712	625.538926495270	256.282292608769	537.451222872166	778.399576263971	159.695126614701	572.584783549679	670.788555633908	181.820304735185	607.587247200867	815.466589978187	32.812769707510	594.008218244720	688.166916620720	38.646058411387	388.283229988349	764.879635254543	35.324028350541	309.997081439753	847.905505082666	95.879396978050	339.425318511391	976.916564381341	40.849461588176	315.151705506726	757.598194982382	1108.603409085646	130.995424921247	904.364675123509	891.761755537672	105.725298007654	822.048032787330	1095.763663515704	727.562206815415	876.706297824485	842.455386049972	759.274975211441	
55	38.109714285714	881.187713520355	964.459083418247	279.119005020052	678.099401441055	1006.685411656018	452.322087070927	845.143170748395	1440.905272600103	272.846097194921	958.421639565683	1364.551437708400	424.359418088245	883.582582714287	1434.038493238477	605.913144136939	858.631054593623	1496.331408455053	423.208496635604	911.815048400663	938.875559273071	550.718386356527	992.958208362318	770.829232747944	516.540367359077	957.935397642744	651.679440711687	592.853883457819	1044.187182431216	613.044855779361	508.511773344821	1064.704787983586	498.237862615671	528.321588384335	926.605942687575	748.150805214211	308.855380523998	829.817881582054	635.562142913323	257.098794650477	909.052063235513	554.302158522159	321.032111861076	905.415840245294	483.796396078650	335.002755665995	875.674639696826	412.747220998882	327.435307892556	782.381254872682	303.125470565477	275.119089608067	820.494028236231	191.175339279653	351.293344281844	984.361404086816	425.783672762044	539.165308935853	862.991208065303	393.091546736092	603.102715737609	840.971974486936	284.919077956487	556.330098259425	639.770990074782	249.740813902940	533.741349127210	795.434846970546	159.229482169538	570.811913743675	687.007926559679	177.563548001324	604.769043690481	836.788124867150	33.817923372520	593.445984911267	681.527047676858	38.725368563137	388.185845020309	758.273445012046	35.347599448923	309.946015079042	841.328993785088	95.892872897930	339.347141990880	970.313722053624	40.785633717972	315.099276153143	759.822296816198	1109.697117673469	128.875564640155	908.467047499347	894.092406664536	105.246519114333	814.437124265464	1097.953160794357	728.367141694265	861.965841821133	843.930700202786	764.389438869987	
56	38.122857142857	881.006889451581	964.582271610592	279.434648874491	676.720284734092	1007.248073396580	450.891167410617	847.002149084120	1441.290838646253	272.483254781671	958.359949266071	1364.572998309525	425.175288468027	881.830371232780	1434.399567760377	605.839879485775	859.030966307871	1496.612741932077	422.971796892874	909.592514333856	939.702763302165	551.255697630614	993.527926438434	775.241425923418	516.666028063027	960.981638109580	655.270855668167	593.001548824975	1048.328504619290	618.627649403477	508.858072974693	1071.478306869010	504.379678726778	528.787082347789	924.190067472488	747.301378016802	309.502121588542	826.444009348582	635.653864511084	257.047421499220	904.339230340913	553.671549926946	321.506116286083	899.830381520351	483.315309776623	335.456566027953	870.103265567474	412.563227915206	327.636303805141	776.628991049619	303.197918602800	275.083279269803	814.206006134418	191.129978867694	351.331925073843	993.371905266073	429.810611516314	539.194233982215	872.686596235027	392.954670604705	601.881044810640	855.071249492415	284.034412037217	555.041875776046	655.341169710778	240.294826603471	530.374410181203	814.340705297891	157.442716512235	569.157025518221	705.192121642045	170.942161779335	602.222446545999	861.243906171963	34.581527057217	592.981871778459	674.898661406021	38.816876823311	388.085048995845	751.670911317055	35.377144679114	309.912523844962	834.758748424648	95.912849357711	339.287254346161	963.715621107429	40.723218177755	315.055940871637	762.122550378551	1110.792786358561	127.034639288399	912.439673253341	896.283655912531	105.273860176426	807.106254135983	1100.195493368653	729.100866923343	848.352137956972	845.770931389384	768.766471072908	
